<?xml version="1.0" encoding="UTF-8"?>
<svg width="48px" height="48px" viewBox="0 0 48 48" version="1.1" xmlns="http://www.w3.org/2000/svg" xmlns:xlink="http://www.w3.org/1999/xlink">
    <!-- Generator: Sketch 50.2 (55047) - http://www.bohemiancoding.com/sketch -->
    <title>pulse/ic_launcher</title>
    <desc>Created with Sketch.</desc>
    <defs>
        <rect id="path-1" x="2" y="2" width="44" height="44" rx="22"></rect>
        <rect id="path-3" x="0" y="0" width="48" height="48"></rect>
        <linearGradient x1="4.89336993%" y1="1.92464193%" x2="63.8139205%" y2="66.4743134%" id="linearGradient-5">
            <stop stop-color="#EEEEEE" offset="0%"></stop>
            <stop stop-color="#D8D8D8" stop-opacity="0" offset="100%"></stop>
        </linearGradient>
        <rect id="path-6" x="0" y="0" width="42.8421053" height="41.6842105"></rect>
        <path d="M4.9787356,17.0323678 L1.37231969,20.6723037 L1.37231969,15.0323678 L1.37231969,2.24289408 C1.37231969,1.13832458 2.26775019,0.242894078 3.37231969,0.242894078 L19.785575,0.242894078 C20.8901445,0.242894078 21.785575,1.13832458 21.785575,2.24289408 L21.785575,15.0323678 C21.785575,16.1369373 20.8901445,17.0323678 19.785575,17.0323678 L4.9787356,17.0323678 Z" id="path-8"></path>
        <filter x="-34.3%" y="-34.3%" width="178.4%" height="178.3%" filterUnits="objectBoundingBox" id="filter-9">
            <feOffset dx="1" dy="1" in="SourceAlpha" result="shadowOffsetOuter1"></feOffset>
            <feGaussianBlur stdDeviation="2.5" in="shadowOffsetOuter1" result="shadowBlurOuter1"></feGaussianBlur>
            <feColorMatrix values="0 0 0 0 0.00784313725   0 0 0 0 0.141176471   0 0 0 0 0.384313725  0 0 0 0.75 0" type="matrix" in="shadowBlurOuter1"></feColorMatrix>
        </filter>
        <rect id="path-10" x="2" y="2" width="44" height="44" rx="22"></rect>
    </defs>
    <g id="ic_launcher" stroke="none" stroke-width="1" fill="none" fill-rule="evenodd">
        <mask id="mask-2" fill="white">
            <use xlink:href="#path-1"></use>
        </mask>
        <use id="mask" fill="#FFFFFF" xlink:href="#path-1"></use>
        <g id="ic_launcher_background" mask="url(#mask-2)">
            <mask id="mask-4" fill="white">
                <use xlink:href="#path-3"></use>
            </mask>
            <use id="dark-background" fill="#3778ED" fill-rule="evenodd" transform="translate(24.000000, 24.000000) scale(1, -1) translate(-24.000000, -24.000000) " xlink:href="#path-3"></use>
            <polygon id="light-background" fill="#428AFF" fill-rule="evenodd" mask="url(#mask-4)" transform="translate(24.000000, 24.000000) scale(1, -1) translate(-24.000000, -24.000000) " points="0 0 48 48 48 0"></polygon>
            <polygon id="light-line" fill="#5E9BFF" fill-rule="evenodd" mask="url(#mask-4)" transform="translate(24.000000, 24.000000) scale(1, -1) translate(-24.000000, -24.000000) " points="0 0 48 48 48 47.5624457 0.444777406 0"></polygon>
            <polygon id="dark-line" fill="#2C6BDC" fill-rule="evenodd" mask="url(#mask-4)" transform="translate(24.000000, 24.000000) scale(1, -1) translate(-24.000000, -24.000000) " points="0 0 48 48 47.5608046 48 0 0.442226531"></polygon>
        </g>
        <g id="ic_launcher_foreground" mask="url(#mask-2)">
            <g transform="translate(12.500000, 13.500000)">
                <g id="shadow" stroke-width="1" fill-rule="evenodd">
                    <mask id="mask-7" fill="white">
                        <use xlink:href="#path-6"></use>
                    </mask>
                    <use id="Mask" fill="url(#linearGradient-5)" xlink:href="#path-6"></use>
                    <polygon fill-opacity="0.1" fill="#000000" mask="url(#mask-7)" points="1.15789474 19.9145133 22.8628112 41.6842105 42.8421053 41.6842105 42.8421053 22.6915484 20.4926783 0 5.9757694 9.34593764"></polygon>
                </g>
                <g id="message-bubble">
                    <use fill="black" fill-opacity="1" filter="url(#filter-9)" xlink:href="#path-8"></use>
                    <use fill="#FFFFFF" fill-rule="evenodd" xlink:href="#path-8"></use>
                </g>
                <g id="lines" stroke-width="1" fill-rule="evenodd" transform="translate(5.532164, 2.017802)">
                    <rect id="bottom" fill="#B7B7B7" x="0" y="8.72638397" width="14.4093567" height="2.14883711"></rect>
                    <rect id="middle" fill="#B7B7B7" x="0.00257389448" y="5.65661653" width="14.4093567" height="2.14883711"></rect>
                    <rect id="top" fill="#B7B7B7" x="0" y="2.58684909" width="14.4093567" height="2.14883711"></rect>
                    <polygon id="line-clip" fill="#FFFFFF" points="0 13.8947368 15.0526316 0 15.0526316 13.4670958"></polygon>
                </g>
            </g>
        </g>
        <mask id="mask-11" fill="white">
            <use xlink:href="#path-10"></use>
        </mask>
        <rect stroke-opacity="0.1" stroke="#FFFFFF" stroke-width="0.3" x="2.15" y="2.15" width="43.7" height="43.7" rx="21.85"></rect>
    </g>
</svg>